HIERARCHY
ROOT SpineBase
{
  OFFSET 0.000000 0.000000 0.000000
  CHANNELS 6 Xposition Yposition Zposition Zrotation Xrotation Yrotation
  JOINT SpineMid
  {
    OFFSET 0.000000 26.814856 0.000000
    CHANNELS 3 Zrotation Xrotation Yrotation
    JOINT SpineShoulder
    {
      OFFSET -0.043475 20.049630 -0.754637
      CHANNELS 3 Zrotation Xrotation Yrotation
      JOINT Neck
      {
        OFFSET -0.031922 6.686064 -0.568087
        CHANNELS 3 Zrotation Xrotation Yrotation
        JOINT Head
        {
          OFFSET 4.675961 12.558172 1.181160
          CHANNELS 3 Zrotation Xrotation Yrotation
          End Site
          {
            OFFSET 0 0 0
          }
        }
      }
      JOINT ShoulderLeft
      {
        OFFSET -13.867713 -2.432084 -8.782626
        CHANNELS 3 Zrotation Xrotation Yrotation
        JOINT ElbowLeft
        {
          OFFSET -5.912658 -20.959285 -2.687100
          CHANNELS 3 Zrotation Xrotation Yrotation
          JOINT WristLeft
          {
            OFFSET -4.840137 -16.305979 -16.064807
            CHANNELS 3 Zrotation Xrotation Yrotation
            JOINT HandLeft
            {
              OFFSET 1.813067 -3.740286 -3.166525
              CHANNELS 3 Zrotation Xrotation Yrotation
              JOINT HandTipLeft
              {
                OFFSET 2.413545 -4.601649 -2.823801
                CHANNELS 3 Zrotation Xrotation Yrotation
                End Site
                {
                  OFFSET 0 0 0
                }
              }
              JOINT ThumbLeft
              {
                OFFSET -2.488806 -0.879046 2.184939
                CHANNELS 3 Zrotation Xrotation Yrotation
                End Site
                {
                  OFFSET 0 0 0
                }
              }
            }
          }
        }
      }
      JOINT ShoulderRight
      {
        OFFSET 13.071113 -4.638435 4.281204
        CHANNELS 3 Zrotation Xrotation Yrotation
        JOINT ElbowRight
        {
          OFFSET 3.517938 -26.095095 2.401794
          CHANNELS 3 Zrotation Xrotation Yrotation
          JOINT WristRight
          {
            OFFSET 2.228141 -6.103360 -20.674873
            CHANNELS 3 Zrotation Xrotation Yrotation
            JOINT HandRight
            {
              OFFSET 0.394372 -3.163569 -6.001422
              CHANNELS 3 Zrotation Xrotation Yrotation
              JOINT HandTipRight
              {
                OFFSET 1.900538 -3.022667 -6.471632
                CHANNELS 3 Zrotation Xrotation Yrotation
                End Site
                {
                  OFFSET 0 0 0
                }
              }
              JOINT ThumbRight
              {
                OFFSET 3.963200 1.044162 -1.310707
                CHANNELS 3 Zrotation Xrotation Yrotation
                End Site
                {
                  OFFSET 0 0 0
                }
              }
            }
          }
        }
      }
    }
  }
  JOINT HipLeft
  {
    OFFSET -7.183589 1.124693 -6.439890
    CHANNELS 3 Zrotation Xrotation Yrotation
    JOINT KneeLeft
    {
      OFFSET 9.099148 2.884118 -29.775083
      CHANNELS 3 Zrotation Xrotation Yrotation
      JOINT AnkleLeft
      {
        OFFSET -2.974206 -36.014256 -1.926027
        CHANNELS 3 Zrotation Xrotation Yrotation
        JOINT FootLeft
        {
          OFFSET 3.409640 -6.470664 -5.635977
          CHANNELS 3 Zrotation Xrotation Yrotation
          End Site
          {
            OFFSET 0 0 0
          }
        }
      }
    }
  }
  JOINT HipRight
  {
    OFFSET 6.796134 1.089076 0.330476
    CHANNELS 3 Zrotation Xrotation Yrotation
    JOINT KneeRight
    {
      OFFSET 17.140972 -0.181046 -25.420179
      CHANNELS 3 Zrotation Xrotation Yrotation
      JOINT AnkleRight
      {
        OFFSET -7.223164 -34.780978 -2.446912
        CHANNELS 3 Zrotation Xrotation Yrotation
        JOINT FootRight
        {
          OFFSET -3.632237 -4.527216 -8.959137
          CHANNELS 3 Zrotation Xrotation Yrotation
          End Site
          {
            OFFSET 0 0 0
          }
        }
      }
    }
  }
}
MOTION
Frames: 16
Frame Time: 0.033333
20.809821 32.682663 356.394690 -17.063418 -12.285317 -8.619324 -0.597724 -1.343809 5.961602 1.574570 0.480858 -0.851999 -0.040749 -7.780963 9.554529 0.000000 0.000000 0.000000 -10.449461 1.732876 9.375923 28.778236 4.983029 -9.049415 -9.722890 -20.850605 -6.160977 2.068699 18.624697 5.865506 0.000000 0.000000 0.000000 0.000000 0.000000 0.000000 18.274485 -19.271789 -4.517365 -8.730643 12.918671 31.388162 -5.060338 32.054739 17.584810 10.029750 -2.210205 -6.256636 0.000000 0.000000 0.000000 0.000000 0.000000 0.000000 17.008646 21.037254 1.341304 0.249461 -3.099033 2.693926 -9.297108 16.832334 16.315134 0.000000 0.000000 0.000000 23.875561 26.269561 -2.690271 -5.687749 -9.544062 3.492775 -2.896378 -1.375204 1.160439 0.000000 0.000000 0.000000
20.785109 32.640058 356.494766 -17.536588 -12.982603 -8.336214 -0.353502 -1.337792 5.478022 1.504959 0.508934 -0.864497 -0.913741 -7.323698 9.852195 0.000000 0.000000 0.000000 -11.691226 1.399628 10.022492 30.255543 5.435980 -9.510155 -10.854534 -21.970019 -6.296140 3.750957 21.003839 5.319545 0.000000 0.000000 0.000000 0.000000 0.000000 0.000000 12.567533 -23.608446 -6.346688 -4.697770 28.984713 24.559760 -8.802296 51.396265 21.820318 11.735634 -32.680525 -18.533917 0.000000 0.000000 0.000000 0.000000 0.000000 0.000000 17.562902 21.556606 0.529513 -0.027048 -3.275297 2.893908 -8.291965 14.541231 14.605243 0.000000 0.000000 0.000000 24.571662 26.823408 -3.404107 -5.610298 -9.312270 3.412156 -3.062066 -1.469518 1.200701 0.000000 0.000000 0.000000
20.930337 32.971413 356.561773 -17.477534 -13.384288 -8.835020 -0.035703 -1.257842 5.911028 1.379300 0.508322 -0.846680 -3.937029 -8.354302 10.564846 0.000000 0.000000 0.000000 -12.453337 1.261235 10.298220 30.939132 5.357953 -9.874099 -11.716901 -22.732321 -6.400159 6.491361 27.831502 5.835224 0.000000 0.000000 0.000000 0.000000 0.000000 0.000000 7.833358 -25.391532 -7.636000 -0.635779 35.802520 21.271718 -10.965165 51.687488 22.760501 12.417758 -37.846818 -19.428071 0.000000 0.000000 0.000000 0.000000 0.000000 0.000000 17.153725 21.562860 0.988263 -0.160657 -3.064992 2.910417 -6.932649 11.267825 12.050957 0.000000 0.000000 0.000000 23.728953 26.746133 -2.388034 -5.257706 -8.574157 3.042565 -2.879356 -1.618656 1.073181 0.000000 0.000000 0.000000
21.051436 33.227980 356.613773 -17.207689 -13.763704 -8.688709 0.343982 -1.041993 5.747674 0.996622 0.312415 -0.827437 -7.411064 -8.898523 11.215226 0.000000 0.000000 0.000000 -13.586992 1.254489 10.669998 31.746085 4.916925 -9.972967 -13.025714 -23.798561 -6.740310 9.571153 33.573753 5.333589 0.000000 0.000000 0.000000 0.000000 0.000000 0.000000 6.307144 -25.456225 -7.964035 0.156059 37.647114 21.783845 -6.397461 48.369698 16.374906 10.033943 -39.077761 -20.678730 0.000000 0.000000 0.000000 0.000000 0.000000 0.000000 16.793436 21.421288 1.024253 -0.081594 -2.707109 2.732945 -6.015010 7.223524 9.352345 0.000000 0.000000 0.000000 23.185637 26.637075 -2.239226 -5.146558 -8.187023 2.833328 -2.374574 -1.911052 0.627239 0.000000 0.000000 0.000000
21.130522 33.483847 356.592713 -17.224760 -14.064968 -8.867298 0.232044 -0.682287 5.936819 0.822379 0.470579 -0.798921 -7.917347 -9.478377 11.289441 0.000000 0.000000 0.000000 -13.603522 1.204362 10.635997 31.161764 4.775158 -8.963333 -12.614480 -23.010472 -7.157728 8.640295 32.028395 5.727345 0.000000 0.000000 0.000000 0.000000 0.000000 0.000000 8.249088 -24.112723 -7.301346 -1.200676 35.487172 22.131139 -5.934764 60.640832 17.343215 4.871817 -51.865250 -21.327387 0.000000 0.000000 0.000000 0.000000 0.000000 0.000000 16.615901 21.323557 1.226389 0.063185 -2.323097 2.665364 -5.395062 3.429615 6.924948 0.000000 0.000000 0.000000 22.808887 26.566287 -1.980983 -5.004654 -7.806435 2.804410 -1.890182 -2.749048 0.657502 0.000000 0.000000 0.000000
21.203124 33.769088 356.523504 -17.104472 -14.141359 -9.207959 0.324985 -0.346461 6.322587 0.745869 0.592242 -0.764656 -8.750500 -10.107153 11.298799 0.000000 0.000000 0.000000 -13.624578 1.659618 10.432643 29.799553 4.763527 -7.400798 -12.922943 -23.728563 -7.994165 8.932009 31.404313 5.275055 0.000000 0.000000 0.000000 0.000000 0.000000 0.000000 7.258493 -25.852218 -7.757579 0.651802 34.014124 18.418971 -3.589862 56.889902 13.379128 3.632187 -43.810000 -15.745545 0.000000 0.000000 0.000000 0.000000 0.000000 0.000000 16.223500 20.986555 1.626176 0.243916 -1.902601 2.683455 -5.180471 -1.910940 3.927410 0.000000 0.000000 0.000000 22.164564 26.284551 -1.448076 -4.832093 -7.407863 2.836213 -1.751206 -2.668688 0.635756 0.000000 0.000000 0.000000
21.242515 34.032170 356.393778 -16.956545 -13.975384 -9.835241 0.377523 0.117975 7.056382 0.693724 0.663185 -0.736486 -9.455697 -10.574925 11.104678 0.000000 0.000000 0.000000 -13.211636 2.559599 9.967322 28.224441 3.106005 -5.696256 -12.539983 -22.579188 -8.352019 7.477862 29.499275 5.935783 0.000000 0.000000 0.000000 0.000000 0.000000 0.000000 6.265430 -28.452506 -8.380600 2.492042 29.823695 14.137622 -0.536380 47.035919 7.991647 1.058657 -25.590990 -5.027687 0.000000 0.000000 0.000000 0.000000 0.000000 0.000000 15.737998 20.550746 2.442602 0.654855 -1.429712 2.637539 -5.673259 1.014447 5.647576 0.000000 0.000000 0.000000 21.437034 25.957072 -0.651088 -4.680876 -7.135429 2.976932 -1.641231 -2.550217 0.607782 0.000000 0.000000 0.000000
21.269419 34.266456 356.232399 -16.711661 -13.579309 -10.481959 0.529425 0.650333 7.855136 0.683814 0.777138 -0.694115 -9.841125 -10.607378 10.634208 0.000000 0.000000 0.000000 -12.816066 2.601780 9.365057 27.282525 2.057245 -5.087267 -10.541283 -20.288910 -8.309562 4.623388 26.505822 7.343635 0.000000 0.000000 0.000000 0.000000 0.000000 0.000000 5.665648 -30.377378 -8.655639 3.292228 26.959160 10.229218 -0.445854 38.806088 6.630410 -0.061962 -10.390904 3.016127 0.000000 0.000000 0.000000 0.000000 0.000000 0.000000 15.208614 20.014575 3.351542 1.105544 -1.009903 2.583591 -6.731395 5.664106 8.611876 0.000000 0.000000 0.000000 20.659788 25.461585 0.200993 -4.551710 -6.899379 3.166125 -1.392180 -3.206012 0.908077 0.000000 0.000000 0.000000
21.266552 34.430827 356.090088 -16.258661 -12.986434 -11.007671 0.808625 1.246054 8.582114 0.657411 0.839103 -0.643312 -10.213146 -10.382117 10.006156 0.000000 0.000000 0.000000 -12.571199 2.052265 8.693455 26.853840 1.209869 -5.294456 -8.972621 -18.887283 -8.475254 1.690129 23.499854 8.701232 0.000000 0.000000 0.000000 0.000000 0.000000 0.000000 5.012980 -32.425479 -8.854239 3.436412 23.848777 7.530976 -0.788651 29.450188 6.709072 1.244211 9.972108 8.052199 0.000000 0.000000 0.000000 0.000000 0.000000 0.000000 14.557682 19.272750 4.317490 1.690284 -0.499989 2.424692 -7.176920 5.947291 8.790695 0.000000 0.000000 0.000000 19.837759 24.851632 0.979427 -4.460152 -6.803670 3.377590 -1.412089 -3.347620 1.202565 0.000000 0.000000 0.000000
21.316966 34.582821 355.942261 -15.576839 -12.197200 -12.262825 0.926529 1.731404 10.090185 0.612715 0.878151 -0.592657 -9.768402 -9.881823 9.235449 0.000000 0.000000 0.000000 -12.264693 1.586195 7.976975 26.162475 0.639441 -5.338653 -8.227032 -17.854311 -8.027461 0.518472 21.782357 9.042001 0.000000 0.000000 0.000000 0.000000 0.000000 0.000000 4.701344 -32.558738 -8.479567 3.391734 19.625693 5.449082 1.445724 5.236412 -0.618083 -3.748107 43.154615 18.791750 0.000000 0.000000 0.000000 0.000000 0.000000 0.000000 13.504473 18.633187 6.028880 1.968340 -0.402496 2.385030 -6.948911 5.042776 7.933062 0.000000 0.000000 0.000000 18.380985 24.118408 2.955977 -4.267411 -6.589633 3.328691 -1.473974 -3.292641 1.393155 0.000000 0.000000 0.000000
21.466616 34.774567 355.781834 -14.519989 -11.287521 -14.137619 1.195609 2.307259 12.254864 0.689549 0.902024 -0.521751 -9.813187 -9.272238 8.358878 0.000000 0.000000 0.000000 -12.434761 0.627243 7.206145 26.037018 0.214199 -6.303016 -8.094329 -18.291657 -7.855150 0.752678 24.097365 9.695318 0.000000 0.000000 0.000000 0.000000 0.000000 0.000000 4.054750 -31.554028 -7.725988 3.220888 17.701760 3.438183 1.814943 3.291591 -1.320398 -9.363298 49.977988 26.775076 0.000000 0.000000 0.000000 0.000000 0.000000 0.000000 11.950742 17.925929 8.633221 2.186069 -0.565550 2.207201 -6.481686 2.759462 6.123692 0.000000 0.000000 0.000000 16.170573 23.058444 6.060574 -3.946558 -6.196273 3.007166 -2.123643 -2.440979 2.172633 0.000000 0.000000 0.000000
21.681430 34.968921 355.685471 -13.125530 -10.187193 -16.122938 1.390657 2.633640 14.551327 0.769630 0.838326 -0.448996 -9.967838 -8.526248 7.498970 0.000000 0.000000 0.000000 -12.362694 -0.612966 6.448656 25.720982 0.802350 -7.823016 -8.165122 -19.862732 -7.548091 0.397961 27.523246 11.284316 0.000000 0.000000 0.000000 0.000000 0.000000 0.000000 3.243081 -29.199642 -6.741266 3.229119 17.709800 1.922914 1.668116 23.112071 1.087694 -7.314239 32.336424 23.559486 0.000000 0.000000 0.000000 0.000000 0.000000 0.000000 10.160122 17.036933 11.492982 2.245867 -0.844735 1.959300 -7.297149 4.858112 7.692880 0.000000 0.000000 0.000000 13.648863 21.487972 9.606056 -3.557582 -5.657159 2.458718 -1.720604 -2.495963 1.717795 0.000000 0.000000 0.000000
21.960187 35.250513 355.593706 -11.550948 -9.073507 -18.314632 1.466699 2.690778 17.034021 0.800581 0.664772 -0.383536 -10.324545 -7.615214 6.760789 0.000000 0.000000 0.000000 -12.701884 -1.801220 5.930149 25.241689 2.384110 -9.018234 -8.817108 -21.840095 -6.672266 2.130439 30.046805 10.500557 0.000000 0.000000 0.000000 0.000000 0.000000 0.000000 2.494622 -25.347509 -5.585365 3.389382 18.395282 0.934690 -8.632882 49.885425 15.922305 -1.656905 4.696404 14.913397 0.000000 0.000000 0.000000 0.000000 0.000000 0.000000 8.236315 15.908698 14.581620 2.058151 -1.333609 1.702359 -7.013004 4.320858 7.102035 0.000000 0.000000 0.000000 11.002552 19.534450 13.403904 -3.090737 -4.951055 1.827047 -0.741953 -3.240585 0.770353 0.000000 0.000000 0.000000
22.271804 35.559632 355.518574 -9.952084 -8.000849 -20.313200 1.489817 2.582105 19.289273 0.835400 0.548942 -0.313797 -9.826819 -6.517129 5.969651 0.000000 0.000000 0.000000 -13.034330 -2.402705 5.431683 24.303150 3.826208 -9.512390 -8.939320 -23.300231 -6.001158 2.306325 30.992515 10.743162 0.000000 0.000000 0.000000 0.000000 0.000000 0.000000 1.594876 -21.362996 -4.574303 4.309011 23.553421 -0.934649 -14.099808 51.585318 20.596162 -3.865506 -8.294730 14.039579 0.000000 0.000000 0.000000 0.000000 0.000000 0.000000 6.451294 14.686180 17.291710 1.621954 -1.884460 1.551019 -6.155964 3.456190 6.020876 0.000000 0.000000 0.000000 8.610286 17.294208 16.890676 -2.622182 -4.186115 1.168154 0.308779 -3.961086 -0.260065 0.000000 0.000000 0.000000
22.616515 35.936398 355.452402 -8.290180 -6.959452 -22.198513 1.469360 2.440151 21.411681 0.857692 0.508981 -0.237296 -9.667179 -6.067152 5.310064 0.000000 0.000000 0.000000 -12.963797 -2.539450 4.821770 22.219999 5.190042 -9.002995 -7.934904 -23.460300 -5.625694 0.651055 28.176449 11.368610 0.000000 0.000000 0.000000 0.000000 0.000000 0.000000 0.448854 -18.814109 -3.945831 5.363266 29.520462 -2.223189 -12.733988 53.980263 16.823626 -6.043415 -14.309309 14.781047 0.000000 0.000000 0.000000 0.000000 0.000000 0.000000 4.750038 13.230302 19.777634 1.139115 -2.376424 1.433101 -5.077169 1.883620 4.401112 0.000000 0.000000 0.000000 6.393014 14.735889 20.166713 -2.069161 -3.321395 0.481222 1.677184 -5.064572 -1.642086 0.000000 0.000000 0.000000
22.951031 36.359830 355.424939 -6.655023 -5.973758 -23.585032 1.401752 2.177103 23.003838 0.820211 0.441147 -0.170033 -9.756729 -5.981600 4.838497 0.000000 0.000000 0.000000 -12.651729 -2.278460 4.226655 20.297253 5.575428 -8.499962 -7.657401 -24.064037 -5.427534 0.715764 25.826063 10.327531 0.000000 0.000000 0.000000 0.000000 0.000000 0.000000 -0.373634 -16.495349 -3.385913 6.381175 31.779581 -4.535991 -15.454668 51.996051 18.730610 -7.086838 -17.145820 14.680354 0.000000 0.000000 0.000000 0.000000 0.000000 0.000000 3.299190 11.576442 21.690740 0.744517 -2.696492 1.277612 -4.054845 -0.248026 2.469928 0.000000 0.000000 0.000000 4.487524 11.783410 22.806887 -1.316788 -2.224147 -0.220065 2.380178 -5.818751 -2.050050 0.000000 0.000000 0.000000
